<svg width="384" height="67" fill="none" xmlns="http://www.w3.org/2000/svg"><path d="M365.079 49.79h3.71l11.322-16.075v16.074h3.888V27.714h-3.696l-11.349 16.103V27.715h-3.875v22.074zm-16.941-3.188a7.537 7.537 0 01-2.952-.584 7.582 7.582 0 01-2.496-1.694 7.664 7.664 0 01-1.649-2.539 7.731 7.731 0 01-.542-2.985 7.588 7.588 0 012.121-5.555 7.509 7.509 0 012.492-1.707 7.451 7.451 0 012.957-.58 7.53 7.53 0 012.965.583 7.574 7.574 0 012.503 1.705 7.652 7.652 0 011.646 2.555c.373.954.552 1.974.526 3a7.637 7.637 0 01-.509 2.983 7.572 7.572 0 01-1.628 2.544 7.496 7.496 0 01-2.487 1.697 7.442 7.442 0 01-2.947.577zm0 3.561c2.22-.09 4.365-.836 6.167-2.146a11.403 11.403 0 003.969-5.223c.786-2.096.943-4.379.452-6.564a11.444 11.444 0 00-3.214-5.726 11.29 11.29 0 00-5.814-2.986 11.233 11.233 0 00-6.482.745 11.34 11.34 0 00-4.998 4.229 11.486 11.486 0 00-1.855 6.308 11.54 11.54 0 00.925 4.437 11.467 11.467 0 002.558 3.729 11.358 11.358 0 003.792 2.435c1.412.55 2.919.808 4.431.762h.069zm-28.634-10.96v-7.941h4.576c2.954 0 4.85 1.386 4.85 3.935 0 2.55-1.869 4.005-4.85 4.005h-4.576zm-3.943 10.586h3.943v-7.095h4.452c4.946 0 8.986-2.577 8.986-7.524 0-4.504-3.311-7.442-8.532-7.442h-8.849V49.79zm-15.718 0h3.971V31.331h7.117v-3.616h-18.274v3.602h7.117l.069 18.472zm-19.236.374c1.709.06 3.411-.26 4.984-.935a11.718 11.718 0 004.126-2.972l-2.556-2.509a8.917 8.917 0 01-2.931 2.096 8.853 8.853 0 01-3.513.759 7.423 7.423 0 01-2.915-.618 7.468 7.468 0 01-2.444-1.717 7.538 7.538 0 01-1.586-2.543 7.607 7.607 0 01-.475-2.965 7.588 7.588 0 01.467-2.97 7.53 7.53 0 011.585-2.547 7.45 7.45 0 012.448-1.716 7.397 7.397 0 012.92-.61 9.032 9.032 0 016.279 2.771l2.528-2.868a11.804 11.804 0 00-4.036-2.639 11.723 11.723 0 00-4.744-.798 11.218 11.218 0 00-4.333.836 11.306 11.306 0 00-3.687 2.445 11.433 11.433 0 00-2.478 3.682 11.497 11.497 0 00-.063 8.729 11.417 11.417 0 002.425 3.718 11.306 11.306 0 003.65 2.5c1.368.582 2.837.888 4.322.9l.027-.029zm-18.274 1.109h3.27l.55-4.947h-2.748v-18.61h-3.916v18.568h-10.511V27.714h-3.943V49.79h17.339l-.041 1.483zm-39.282-1.386h16.804v-3.464h-12.861v-6.028h11.253V36.93h-11.253v-5.737h12.696v-3.479h-16.639v22.172zm-24.539 0h3.943V31.234h10.429V49.79h3.943V27.714h-18.315v22.172zm-13.74.374c1.709.06 3.411-.26 4.984-.935a11.706 11.706 0 004.125-2.972l-2.528-2.509a8.94 8.94 0 01-2.938 2.096 8.877 8.877 0 01-3.519.759 7.42 7.42 0 01-2.912-.639 7.472 7.472 0 01-2.432-1.735 7.552 7.552 0 01-1.568-2.555 7.6 7.6 0 01-.453-2.97 7.572 7.572 0 01.466-2.966 7.503 7.503 0 011.581-2.546 7.445 7.445 0 012.443-1.717c.921-.4 1.913-.61 2.916-.614a9.036 9.036 0 016.293 2.772l2.5-2.938a11.799 11.799 0 00-4.035-2.639 11.733 11.733 0 00-4.745-.798 11.224 11.224 0 00-4.333.837 11.306 11.306 0 00-3.687 2.445 11.433 11.433 0 00-2.478 3.682 11.497 11.497 0 00-.063 8.728 11.432 11.432 0 002.425 3.718 11.298 11.298 0 003.651 2.5c1.367.583 2.836.888 4.321.9l-.014.096zm-28.387-3.56a7.523 7.523 0 01-2.96-.605 7.587 7.587 0 01-2.492-1.723 7.663 7.663 0 01-1.627-2.567 7.717 7.717 0 01-.505-3.004 7.614 7.614 0 01.491-2.995 7.567 7.567 0 011.621-2.56 7.49 7.49 0 012.49-1.707 7.432 7.432 0 012.955-.58 7.525 7.525 0 012.964.583c.94.393 1.791.973 2.504 1.705a7.65 7.65 0 011.645 2.555c.373.954.552 1.974.526 3a7.618 7.618 0 01-.508 2.983 7.574 7.574 0 01-1.629 2.544 7.492 7.492 0 01-2.486 1.697 7.445 7.445 0 01-2.947.577l-.042.097zm0 3.561a11.26 11.26 0 006.174-2.113 11.401 11.401 0 003.994-5.197c.797-2.09.968-4.37.491-6.557a11.449 11.449 0 00-3.176-5.742 11.291 11.291 0 00-5.79-3.024 11.23 11.23 0 00-6.482.698 11.34 11.34 0 00-5.027 4.187 11.494 11.494 0 00-1.904 6.288c.013 1.526.326 3.033.924 4.434a11.457 11.457 0 002.555 3.727 11.346 11.346 0 003.787 2.436c1.41.55 2.915.81 4.427.766l.027.097zm-26.421-.374h3.971V31.331h7.117v-3.616h-18.233v3.602h7.117l.028 18.57zm-25.268-3.533V40.31h6.252c3.105 0 4.616 1.095 4.616 2.951 0 1.857-1.635 3.09-4.273 3.09h-6.595zm0-9.326v-5.862h5.675c2.528 0 3.943 1.08 3.943 2.772 0 2.078-1.704 3.048-4.232 3.048l-5.386.042zm-3.888 12.762h10.387c5.015 0 8.244-2.106 8.244-6.042 0-3.062-1.827-4.545-4.452-5.432a5.206 5.206 0 002.347-1.957 5.28 5.28 0 00.855-2.948 4.936 4.936 0 00-1.402-3.728 8.198 8.198 0 00-5.908-1.967h-10.071V49.79zm-19.91-8.758l3.848-8.827 3.875 8.827h-7.722zm-7.803 8.758h4.053l2.308-5.321h10.607l2.281 5.321h4.122l-9.879-22.172h-3.613l-9.88 22.172z" fill="#fff"/><path d="M373.021 23.724h6.101l-6.101 7.108v-7.108z" fill="#fff"/><path d="M44.86 0L10.25 60.653h10.497l24.69-42.583L73.468 67H48.955l-8.986-15.7 3.394-6.042 8.78 15.395h10.552l-17.34-30.638-20.76 36.625H0L38.032 0h6.829z" fill="#D31E16"/></svg>