<svg width="16" height="17" fill="none" xmlns="http://www.w3.org/2000/svg"><g clip-path="url(#clip0)"><path d="M15.28 12.383l-2.373-2.143a.322.322 0 00-.035-.028c-.622-.42-1.421-.327-1.943.227l-1.294 1.374a.298.298 0 01-.34.072 8.554 8.554 0 01-3.567-2.872c-.69-.964-.94-1.73-.972-1.838a.347.347 0 00-.02-.068.345.345 0 01.069-.362l1.293-1.374a1.728 1.728 0 00.203-2.08L4.588.76C4.05-.13 2.875-.263 2.17.485L1.911.76v.001l-.925.983C-.117 2.916-.298 4.677.464 6.837c.652 1.85 1.958 3.875 3.677 5.701 1.76 1.87 3.717 3.283 5.511 3.98 1.776.689 3.665.774 5.002-.647l.872-.927c.702-.745.58-1.985-.246-2.56zm-2.76-1.622l2.37 2.142c.011.01.023.019.035.027.506.343.583 1.095.16 1.545l-.066.069-4.043-3.216.395-.42a.891.891 0 011.149-.147zM4.066 1.125l.01.016L5.789 3.67c.232.395.178.9-.133 1.231l-.382.406-2.735-4.273.073-.078c.425-.452 1.133-.367 1.454.17zm5.8 14.769c-1.71-.664-3.586-2.023-5.283-3.825-1.657-1.761-2.912-3.702-3.534-5.465-.467-1.323-.78-3.16.379-4.39l.66-.702 2.736 4.273-.461.49c-.263.28-.345.691-.214 1.058.099.43.552 1.323 1.01 1.98A9.28 9.28 0 009.056 12.5a.895.895 0 001.021-.216l.453-.481 4.043 3.216-.36.383c-1.242 1.32-3.05.996-4.347.493z" fill="#fff"/></g><defs><clipPath id="clip0"><path fill="#fff" d="M0 0h16v17H0z"/></clipPath></defs></svg>