<svg width="12" height="17" fill="none" xmlns="http://www.w3.org/2000/svg"><path d="M6 0C2.691 0 0 2.86 0 6.375c0 4.703 5.536 10.293 5.771 10.529A.323.323 0 006 17a.324.324 0 00.229-.096C6.464 16.668 12 11.078 12 6.375 12 2.86 9.309 0 6 0zm0 16.15C4.952 15.04.667 10.254.667 6.375.667 3.25 3.059.708 6 .708c2.94 0 5.333 2.542 5.333 5.667 0 3.88-4.285 8.664-5.333 9.775z" fill="#fff"/><path d="M6 2.833c-1.838 0-3.333 1.59-3.333 3.542 0 1.953 1.495 3.542 3.333 3.542s3.334-1.59 3.334-3.542c0-1.953-1.496-3.542-3.334-3.542zm0 6.375c-1.47 0-2.666-1.27-2.666-2.833C3.334 4.813 4.53 3.542 6 3.542c1.471 0 2.667 1.27 2.667 2.833 0 1.562-1.196 2.833-2.667 2.833z" fill="#fff"/></svg>