<svg width="255" height="44" fill="none" xmlns="http://www.w3.org/2000/svg"><g clip-path="url(#clip0)"><path d="M242.436 32.697h2.464l7.518-10.556v10.556H255V18.201h-2.454l-7.537 10.574V18.201h-2.573v14.496zm-11.25-2.093a5.06 5.06 0 01-3.618-1.496 5.03 5.03 0 01-1.455-3.627 4.964 4.964 0 013.064-4.77 4.992 4.992 0 011.963-.38 5.048 5.048 0 013.632 1.502 5.03 5.03 0 011.441 3.648 4.966 4.966 0 01-3.07 4.745 4.994 4.994 0 01-1.957.378zm0 2.34a7.528 7.528 0 004.095-1.41 7.482 7.482 0 00.802-11.5 7.527 7.527 0 00-8.166-1.473 7.515 7.515 0 00-3.319 2.777 7.486 7.486 0 00-1.231 4.143 7.511 7.511 0 002.313 5.362 7.545 7.545 0 005.46 2.1h.046zm-19.015-7.2V20.53h3.039c1.961 0 3.221.91 3.221 2.585 0 1.674-1.241 2.63-3.221 2.63h-3.039zm-2.618 6.953h2.618v-4.659h2.957c3.284 0 5.967-1.692 5.967-4.941 0-2.958-2.199-4.887-5.666-4.887h-5.876v14.487zm-10.438 0h2.637V20.576h4.726V18.2h-12.135v2.366h4.726l.046 12.13zm-12.774.246a7.792 7.792 0 006.049-2.566l-1.697-1.647a5.912 5.912 0 01-4.279 1.874 4.969 4.969 0 01-4.611-3.203 4.921 4.921 0 01-.316-1.947 4.932 4.932 0 014.927-5.151 6.03 6.03 0 014.17 1.82l1.679-1.884a7.85 7.85 0 00-5.831-2.257 7.519 7.519 0 00-6.971 4.573 7.469 7.469 0 00-.042 5.733 7.495 7.495 0 004.034 4.082 7.533 7.533 0 002.87.591l.018-.018zm-12.135.728h2.172l.365-3.249h-1.825V18.201h-2.601v12.194h-6.979V18.201h-2.619v14.496h11.515l-.028.974zm-26.086-.91h11.159v-2.275h-8.54v-3.959h7.473v-2.275h-7.473v-3.767h8.431V18.2h-11.05v14.56zm-16.295 0h2.618V20.512h6.926v12.185h2.618V18.201h-12.162v14.56zm-9.124.246a7.792 7.792 0 006.049-2.566l-1.679-1.647a5.94 5.94 0 01-4.288 1.874 4.97 4.97 0 01-4.59-3.237 4.947 4.947 0 01-.301-1.95 4.923 4.923 0 011.359-3.62 4.96 4.96 0 013.559-1.53 6.03 6.03 0 014.179 1.82l1.661-1.93a7.85 7.85 0 00-5.831-2.257 7.527 7.527 0 00-5.326 2.155 7.492 7.492 0 00-2.238 5.28 7.471 7.471 0 002.161 5.312 7.51 7.51 0 005.294 2.232l-.009.064zm-18.851-2.339a5.049 5.049 0 01-3.62-1.529 5.017 5.017 0 01-1.416-3.658 4.946 4.946 0 011.402-3.648 4.979 4.979 0 013.616-1.503 5.052 5.052 0 013.631 1.503 5.027 5.027 0 011.442 3.648 4.953 4.953 0 01-1.419 3.63 4.987 4.987 0 01-3.608 1.493l-.028.064zm0 2.339a7.533 7.533 0 004.1-1.388 7.5 7.5 0 002.652-3.413 7.477 7.477 0 00-1.783-8.077 7.53 7.53 0 00-11.487 1.222 7.485 7.485 0 00-1.265 4.13 7.51 7.51 0 002.31 5.359 7.55 7.55 0 005.455 2.103l.018.064zm-17.545-.246h2.636V20.576h4.727V18.2H81.56v2.366h4.726l.019 12.194zm-16.78-2.32v-3.968h4.152c2.062 0 3.066.719 3.066 1.938 0 1.22-1.086 2.03-2.838 2.03h-4.38zm0-6.125v-3.85h3.769c1.678 0 2.618.71 2.618 1.82 0 1.366-1.131 2.003-2.81 2.003l-3.577.027zm-2.582 8.381h6.898c3.33 0 5.475-1.383 5.475-3.967 0-2.011-1.214-2.985-2.957-3.568a3.434 3.434 0 002.126-3.222 3.213 3.213 0 00-.93-2.447A5.484 5.484 0 0073.63 18.2h-6.688v14.496zm-13.22-5.75l2.554-5.798 2.573 5.797h-5.128zm-5.183 5.75h2.692l1.532-3.494h7.044l1.515 3.494h2.737l-6.56-14.56h-2.4l-6.56 14.56z" fill="#232628"/><path d="M247.71 15.58h4.051l-4.051 4.668V15.58z" fill="#232628"/><path d="M29.79 0L6.807 39.832h6.97l16.396-27.965L48.786 44H32.51l-5.967-10.31 2.254-3.968 5.83 10.11h7.007L30.12 19.712l-13.788 24.05H0L25.256 0h4.534z" fill="#D31E16"/></g><defs><clipPath id="clip0"><path fill="#fff" d="M0 0h255v44H0z"/></clipPath></defs></svg>