<svg width="20" height="19" fill="none" xmlns="http://www.w3.org/2000/svg"><path d="M9.523 18.565h-.021c-3.05 0-4.998-1.415-5.19-1.497l-3.593.915.963-3.42-.23-.352A9.118 9.118 0 010 9.276C0 1.025 10.297-3.101 16.256 2.73c5.945 5.77 1.771 15.834-6.733 15.834z" fill="#41B5C0"/><path d="M14.737 11.58l-.009.07c-.288-.14-1.693-.813-1.955-.906-.587-.213-.422-.034-1.55 1.23-.167.184-.334.198-.619.071-.287-.14-1.21-.436-2.303-1.393-.85-.746-1.422-1.661-1.59-1.943-.281-.474.306-.542.841-1.533.096-.197.047-.352-.024-.492-.072-.14-.644-1.52-.883-2.07-.23-.547-.467-.478-.645-.478-.552-.047-.955-.04-1.31.323-1.547 1.664-1.157 3.382.166 5.207 2.601 3.333 3.987 3.947 6.52 4.8.685.212 1.309.182 1.802.113.55-.086 1.694-.677 1.932-1.338.245-.662.245-1.21.173-1.338-.071-.126-.259-.197-.546-.323z" fill="#fff"/></svg>